<svg width="145" height="46" viewBox="0 0 145 46" fill="none" xmlns="http://www.w3.org/2000/svg">
<path d="M4.53169 10.912C3.25169 10.912 2.25969 10.56 1.55569 9.856C0.883688 9.12 0.547688 8.24 0.547688 7.216C0.547688 6.96 0.579688 6.656 0.643688 6.304C0.739688 5.952 0.851688 5.648 0.979688 5.392C1.39569 5.584 2.00369 5.728 2.80369 5.824C3.63569 5.888 4.59569 5.92 5.68369 5.92C7.31569 5.92 9.15569 5.856 11.2037 5.728C13.2837 5.568 15.2677 5.408 17.1557 5.248C19.0437 5.088 20.7077 4.944 22.1477 4.816C23.5877 4.656 24.5157 4.576 24.9317 4.576C26.1157 4.576 26.9637 5.024 27.4757 5.92C28.0197 6.784 28.4197 7.952 28.6757 9.424C27.8437 9.36 27.0117 9.312 26.1797 9.28C25.3797 9.216 24.6917 9.184 24.1157 9.184C23.0917 9.184 22.0517 9.216 20.9957 9.28C19.9717 9.344 18.9317 9.44 17.8757 9.568C17.4277 10.496 16.9317 11.6 16.3877 12.88C15.8437 14.128 15.2997 15.44 14.7557 16.816C14.2437 18.192 13.7477 19.568 13.2677 20.944C12.7877 22.288 12.3717 23.504 12.0197 24.592C11.3157 26.704 10.6917 28.656 10.1477 30.448C9.63569 32.24 9.17169 33.92 8.75569 35.488C8.37169 37.024 8.03569 38.496 7.74769 39.904C7.45969 41.312 7.20369 42.688 6.97969 44.032C4.83569 43.712 3.04369 42.368 1.60369 40C1.85969 39.008 2.16369 37.936 2.51569 36.784C2.89969 35.6 3.33169 34.272 3.81169 32.8C4.32369 31.296 4.91569 29.6 5.58769 27.712C6.25969 25.824 7.02769 23.68 7.89169 21.28C8.21169 20.384 8.54769 19.456 8.89969 18.496C9.25169 17.504 9.58769 16.528 9.90769 15.568C10.2597 14.608 10.5637 13.68 10.8197 12.784C11.1077 11.888 11.3477 11.072 11.5397 10.336C10.1957 10.496 8.91569 10.64 7.69969 10.768C6.51569 10.864 5.45969 10.912 4.53169 10.912ZM34.1769 20.608C34.4969 20.608 34.8649 20.672 35.2809 20.8C35.7289 20.896 36.1289 21.04 36.4809 21.232C36.8329 21.392 37.1209 21.568 37.3449 21.76C37.6009 21.952 37.7289 22.128 37.7289 22.288C37.0889 23.632 36.4969 24.992 35.9529 26.368C35.4089 27.712 34.9449 29.008 34.5609 30.256C34.1769 31.504 33.8729 32.672 33.6489 33.76C33.4569 34.848 33.3609 35.792 33.3609 36.592C33.3609 37.488 33.4569 38.24 33.6489 38.848C33.8409 39.424 34.1609 39.84 34.6089 40.096C34.2249 40.352 33.7289 40.56 33.1209 40.72C32.5129 40.88 31.9689 40.96 31.4889 40.96C29.7609 40.96 28.8969 39.776 28.8969 37.408C28.8969 35.584 29.5049 33.088 30.7209 29.92C30.0809 31.392 29.3449 32.784 28.5129 34.096C27.6809 35.376 26.8329 36.512 25.9689 37.504C25.1049 38.496 24.2249 39.312 23.3289 39.952C22.4649 40.56 21.6649 40.928 20.9289 41.056C19.7449 40.992 18.7849 40.432 18.0489 39.376C17.3129 38.288 16.9449 36.912 16.9449 35.248C16.9449 33.456 17.3289 31.568 18.0969 29.584C18.8649 27.6 19.8409 25.76 21.0249 24.064C22.2409 22.368 23.5529 20.96 24.9609 19.84C26.3689 18.688 27.7289 18.08 29.0409 18.016C29.3609 18.112 29.7129 18.304 30.0969 18.592C30.5129 18.88 30.8969 19.216 31.2489 19.6C31.6329 19.984 31.9529 20.384 32.2089 20.8C32.4649 21.184 32.6089 21.52 32.6409 21.808C31.3609 22 30.0329 22.624 28.6569 23.68C27.3129 24.736 26.0809 26.016 24.9609 27.52C23.8729 28.992 22.9769 30.576 22.2729 32.272C21.5689 33.968 21.2169 35.552 21.2169 37.024C21.2169 37.632 21.4409 38.016 21.8889 38.176C22.8169 37.984 23.8889 37.2 25.1049 35.824C26.3209 34.416 27.7929 32.256 29.5209 29.344C29.8409 28.768 30.1929 28.128 30.5769 27.424C30.9929 26.72 31.4089 25.984 31.8249 25.216C32.2409 24.448 32.6409 23.68 33.0249 22.912C33.4409 22.112 33.8249 21.344 34.1769 20.608ZM40.2598 35.488C40.2598 34.336 40.5478 32.736 41.1238 30.688C41.7318 28.64 42.5158 26.4 43.4758 23.968C44.4358 21.536 45.5238 19.024 46.7398 16.432C47.9558 13.84 49.1718 11.424 50.3878 9.184C51.6358 6.944 52.8198 5.008 53.9398 3.376C55.0918 1.744 56.0678 0.639999 56.8678 0.0639992C57.3158 0.0959988 57.7958 0.287998 58.3078 0.639997C58.8518 0.991999 59.3478 1.424 59.7958 1.936C60.2438 2.416 60.6118 2.928 60.8998 3.472C61.2198 4.016 61.3798 4.512 61.3798 4.96C59.9398 6.112 58.4678 7.6 56.9638 9.424C55.4918 11.216 54.0838 13.2 52.7398 15.376C51.3958 17.52 50.1478 19.808 48.9958 22.24C47.8758 24.64 46.9318 27.008 46.1638 29.344C47.1878 27.584 48.2598 25.984 49.3798 24.544C50.4998 23.104 51.6198 21.872 52.7398 20.848C53.8598 19.824 54.9478 19.04 56.0038 18.496C57.0918 17.92 58.1158 17.616 59.0758 17.584C60.4838 18.608 61.1878 19.968 61.1878 21.664C61.1878 22.688 60.9798 23.728 60.5638 24.784C60.1478 25.808 59.5878 26.768 58.8838 27.664C58.2118 28.528 57.4278 29.28 56.5318 29.92C55.6678 30.528 54.7558 30.928 53.7958 31.12C54.1158 32.24 54.5158 33.376 54.9958 34.528C55.5078 35.68 56.0998 36.8 56.7718 37.888C57.4758 38.976 58.2598 39.984 59.1238 40.912C60.0198 41.84 61.0278 42.624 62.1478 43.264C61.9878 43.584 61.7478 43.904 61.4278 44.224C61.1078 44.544 60.7238 44.816 60.2758 45.04C59.8278 45.296 59.3318 45.488 58.7878 45.616C58.2758 45.776 57.7638 45.856 57.2518 45.856C56.3878 45.856 55.5718 45.424 54.8038 44.56C54.0678 43.696 53.3958 42.448 52.7878 40.816C52.3078 39.504 51.8438 37.936 51.3958 36.112C50.9478 34.288 50.5478 32.384 50.1958 30.4C50.6438 30.112 51.2038 29.696 51.8758 29.152C52.5478 28.576 53.2518 27.92 53.9878 27.184C56.8038 24.464 58.2118 22.112 58.2118 20.128C58.2118 19.872 58.0358 19.744 57.6838 19.744C57.0438 19.776 56.2918 20.08 55.4278 20.656C54.5638 21.232 53.6358 22.032 52.6438 23.056C51.6838 24.08 50.6918 25.28 49.6678 26.656C48.6758 28.032 47.7158 29.52 46.7878 31.12C46.4038 31.76 46.0518 32.496 45.7318 33.328C45.4118 34.16 45.1238 35.024 44.8678 35.92C44.6438 36.784 44.4678 37.648 44.3398 38.512C44.2118 39.376 44.1478 40.176 44.1478 40.912C44.1478 41.36 44.1958 41.728 44.2918 42.016C43.2998 41.92 42.6918 41.664 42.4678 41.248C42.2118 40.864 41.9878 40.544 41.7958 40.288C41.6358 40.064 41.4598 39.872 41.2678 39.712C40.9798 39.488 40.7398 39.008 40.5478 38.272C40.3558 37.536 40.2598 36.608 40.2598 35.488ZM80.9259 20.128C80.7979 22.112 80.4459 23.824 79.8699 25.264C79.2939 26.672 78.4619 27.92 77.3739 29.008C76.3179 30.064 75.0219 31.024 73.4859 31.888C71.9499 32.752 70.1579 33.584 68.1099 34.384C68.1099 34.576 68.0939 34.784 68.0619 35.008C68.0619 35.2 68.0619 35.408 68.0619 35.632C68.0619 36.048 68.0939 36.48 68.1579 36.928C68.2219 37.376 68.3339 37.792 68.4939 38.176C68.6539 38.56 68.8779 38.88 69.1659 39.136C69.4539 39.36 69.8219 39.472 70.2699 39.472C71.1339 39.472 71.9819 39.28 72.8139 38.896C73.6459 38.512 74.4299 38.048 75.1659 37.504C75.9339 36.928 76.6379 36.32 77.2779 35.68C77.9499 35.008 78.5419 34.4 79.0539 33.856C79.3739 34.144 79.6459 34.416 79.8699 34.672C78.4299 36.592 76.8459 38.192 75.1179 39.472C73.4219 40.72 71.8059 41.52 70.2699 41.872C68.0619 41.616 66.3339 40.816 65.0859 39.472C63.8699 38.096 63.2619 36.448 63.2619 34.528C63.2619 33.216 63.4379 31.888 63.7899 30.544C64.1739 29.168 64.6859 27.856 65.3259 26.608C65.9979 25.328 66.7659 24.128 67.6299 23.008C68.5259 21.888 69.4699 20.912 70.4619 20.08C71.4859 19.248 72.5259 18.592 73.5819 18.112C74.6699 17.632 75.7419 17.392 76.7979 17.392C78.2699 17.584 79.6459 18.496 80.9259 20.128ZM77.6139 21.712C76.7499 21.84 75.8539 22.192 74.9259 22.768C73.9979 23.344 73.1179 24.112 72.2859 25.072C71.4859 26.032 70.7499 27.152 70.0779 28.432C69.4059 29.712 68.8779 31.088 68.4939 32.56C71.0539 31.28 73.1819 29.712 74.8779 27.856C76.5739 25.968 77.4859 23.92 77.6139 21.712ZM103.164 43.552C103.1 43.584 103.036 43.6 102.972 43.6C102.908 43.6 102.78 43.6 102.588 43.6C102.14 43.6 101.612 43.52 101.004 43.36C100.428 43.232 99.8522 43.056 99.2762 42.832C98.7322 42.64 98.2522 42.416 97.8362 42.16C97.4522 41.904 97.2122 41.68 97.1162 41.488C97.0842 41.04 97.0682 40.576 97.0682 40.096C97.0682 39.616 97.0682 39.152 97.0682 38.704C97.0682 35.12 97.3242 31.376 97.8362 27.472C98.3802 23.568 99.2602 19.344 100.476 14.8C100.604 14.352 100.732 13.792 100.86 13.12C101.02 12.416 101.18 11.664 101.34 10.864C100.572 11.472 99.6602 12.448 98.6042 13.792C97.5482 15.104 96.4282 16.672 95.2442 18.496C94.0922 20.288 92.9242 22.272 91.7402 24.448C90.5882 26.592 89.5322 28.784 88.5722 31.024C87.6122 33.232 86.7802 35.424 86.0762 37.6C85.4042 39.776 84.9882 41.792 84.8282 43.648C83.2922 43.2 82.2202 42.752 81.6122 42.304C81.0362 41.856 80.7482 41.312 80.7482 40.672C80.7482 40.096 80.9242 39.28 81.2762 38.224C81.6282 37.168 82.1242 35.92 82.7642 34.48C83.4042 33.04 84.1882 31.44 85.1162 29.68C86.0442 27.888 87.0682 25.968 88.1882 23.92C89.4682 21.584 90.7162 19.392 91.9322 17.344C93.1802 15.296 94.3962 13.44 95.5802 11.776C96.7642 10.112 97.9162 8.672 99.0362 7.456C100.188 6.24 101.324 5.312 102.444 4.672C102.892 4.672 103.484 4.784 104.22 5.008C104.988 5.232 105.724 5.504 106.428 5.824C107.164 6.144 107.804 6.48 108.348 6.832C108.924 7.152 109.244 7.424 109.308 7.648C108.86 8.544 108.332 9.888 107.724 11.68C107.116 13.472 106.492 15.504 105.852 17.776C105.244 20.048 104.652 22.464 104.076 25.024C103.532 27.552 103.1 29.984 102.78 32.32C103.516 30.56 104.364 28.736 105.324 26.848C106.316 24.928 107.356 23.04 108.444 21.184C109.532 19.296 110.636 17.472 111.756 15.712C112.908 13.952 114.028 12.352 115.116 10.912C116.204 9.44 117.212 8.16 118.14 7.072C119.1 5.984 119.948 5.184 120.684 4.672C121.132 4.672 121.724 4.784 122.46 5.008C123.228 5.232 123.964 5.504 124.668 5.824C125.404 6.144 126.044 6.48 126.588 6.832C127.164 7.152 127.484 7.424 127.548 7.648C126.524 9.472 125.628 11.696 124.86 14.32C124.092 16.944 123.436 19.696 122.892 22.576C122.38 25.456 121.98 28.32 121.692 31.168C121.436 33.984 121.308 36.512 121.308 38.752C121.308 39.488 121.308 40.256 121.308 41.056C121.308 41.856 121.34 42.688 121.404 43.552C120.956 43.552 120.412 43.488 119.772 43.36C119.164 43.264 118.556 43.12 117.948 42.928C117.372 42.736 116.844 42.512 116.364 42.256C115.884 42.032 115.548 41.776 115.356 41.488C115.324 41.04 115.308 40.576 115.308 40.096C115.308 39.616 115.308 39.152 115.308 38.704C115.308 35.12 115.564 31.376 116.076 27.472C116.62 23.568 117.5 19.344 118.716 14.8C118.844 14.352 118.988 13.744 119.148 12.976C119.308 12.208 119.468 11.408 119.628 10.576C118.732 11.024 117.708 11.888 116.556 13.168C115.436 14.416 114.284 15.952 113.1 17.776C111.948 19.568 110.796 21.568 109.644 23.776C108.524 25.984 107.5 28.24 106.572 30.544C105.676 32.816 104.908 35.088 104.268 37.36C103.66 39.6 103.292 41.664 103.164 43.552ZM144.254 20.128C144.126 22.112 143.774 23.824 143.198 25.264C142.622 26.672 141.79 27.92 140.702 29.008C139.646 30.064 138.35 31.024 136.814 31.888C135.278 32.752 133.486 33.584 131.438 34.384C131.438 34.576 131.422 34.784 131.39 35.008C131.39 35.2 131.39 35.408 131.39 35.632C131.39 36.048 131.422 36.48 131.486 36.928C131.55 37.376 131.662 37.792 131.822 38.176C131.982 38.56 132.206 38.88 132.494 39.136C132.782 39.36 133.15 39.472 133.598 39.472C134.462 39.472 135.31 39.28 136.142 38.896C136.974 38.512 137.758 38.048 138.494 37.504C139.262 36.928 139.966 36.32 140.606 35.68C141.278 35.008 141.87 34.4 142.382 33.856C142.702 34.144 142.974 34.416 143.198 34.672C141.758 36.592 140.174 38.192 138.446 39.472C136.75 40.72 135.134 41.52 133.598 41.872C131.39 41.616 129.662 40.816 128.414 39.472C127.198 38.096 126.59 36.448 126.59 34.528C126.59 33.216 126.766 31.888 127.118 30.544C127.502 29.168 128.014 27.856 128.654 26.608C129.326 25.328 130.094 24.128 130.958 23.008C131.854 21.888 132.798 20.912 133.79 20.08C134.814 19.248 135.854 18.592 136.91 18.112C137.998 17.632 139.07 17.392 140.126 17.392C141.598 17.584 142.974 18.496 144.254 20.128ZM140.942 21.712C140.078 21.84 139.182 22.192 138.254 22.768C137.326 23.344 136.446 24.112 135.614 25.072C134.814 26.032 134.078 27.152 133.406 28.432C132.734 29.712 132.206 31.088 131.822 32.56C134.382 31.28 136.51 29.712 138.206 27.856C139.902 25.968 140.814 23.92 140.942 21.712Z" fill="#3EC6FF"/>
</svg>
