<!-- Generated by IcoMoon.io -->
<svg version="1.1" xmlns="http://www.w3.org/2000/svg" width="1106" height="1024" viewBox="0 0 1106 1024">
<title></title>
<g id="icomoon-ignore">
</g>
<path stroke-linejoin="miter" stroke-linecap="butt" stroke-miterlimit="4" stroke-width="40.96" fill="#fff" stroke="#868686" d="M64.387 790.487c164.852-61.17 347.857-137.122 363.233-184.455v-49.652c-34.198-33.591-61.17-80.441-77.132-135.291-38.068-25.664-48.067-78.945-16.142-116.657v-111.144c0-114.743 66.544-193.288 218.677-193.288 148.203 0 218.751 78.545 218.751 193.288v111.187c31.81 37.601 21.926 90.869-16.143 116.598-15.961 54.866-42.954 101.716-77.172 135.307v49.652c15.335 47.272 198.383 123.245 363.234 184.455 14.051 5.235 23.347 18.358 23.347 33.026v124.178c0 19.501-16.241 35.348-36.271 35.348h-951.459c-20.029 0-36.27-15.847-36.27-35.348v-124.178c-0.004-14.668 9.294-27.828 23.347-33.026v0z"></path>
</svg>
