<svg width="127" height="127" viewBox="0 0 127 127" fill="none" xmlns="http://www.w3.org/2000/svg">
<path fill-rule="evenodd" clip-rule="evenodd" d="M96.4417 61.7515L49.875 30.0015C49.2252 29.5612 48.387 29.5125 47.6927 29.8787C47.0006 30.2449 46.5667 30.9646 46.5667 31.7499V95.2499C46.5667 96.0351 47.0006 96.7548 47.6948 97.121C48.0039 97.2861 48.3447 97.3665 48.6833 97.3665C49.1003 97.3665 49.5173 97.2416 49.875 96.9982L96.4417 65.2482C97.0195 64.8545 97.3666 64.2005 97.3666 63.4999C97.3666 62.7992 97.0195 62.1452 96.4417 61.7515ZM50.8 91.243V35.7567L91.4929 63.4999L50.8 91.243Z" fill="white"/>
<path fill-rule="evenodd" clip-rule="evenodd" d="M63.5 0C28.4861 0 0 28.4861 0 63.5C0 98.5139 28.4861 127 63.5 127C98.5139 127 127 98.5139 127 63.5C127 28.4861 98.5139 0 63.5 0ZM63.5 122.767C30.8208 122.767 4.23333 96.1792 4.23333 63.5C4.23333 30.8208 30.8208 4.23333 63.5 4.23333C96.1792 4.23333 122.767 30.8208 122.767 63.5C122.767 96.1792 96.1792 122.767 63.5 122.767Z" fill="white"/>
</svg>
