<svg width="15" height="14" viewBox="0 0 15 14" fill="none" xmlns="http://www.w3.org/2000/svg">
<path fill-rule="evenodd" clip-rule="evenodd" d="M6.5164 0.302107C6.60794 0.117217 6.79645 0 7.00249 0C7.20852 0 7.39734 0.117217 7.48858 0.302107L9.23204 3.83525C9.31089 3.99506 9.46375 4.10593 9.64048 4.13161L13.5395 4.69806C13.744 4.72767 13.9132 4.87087 13.9769 5.06694C14.0407 5.263 13.9875 5.47871 13.8398 5.62251L11.0187 8.37289C10.8909 8.49736 10.8326 8.67681 10.8625 8.85264L11.5284 12.7362C11.5628 12.9398 11.4797 13.1453 11.3123 13.2667C11.1453 13.3876 10.9244 13.4036 10.7414 13.3081L7.25384 11.4743C7.09614 11.3912 6.90732 11.3912 6.74932 11.4743L3.2618 13.3078C3.07933 13.4036 2.85788 13.3879 2.69082 13.2667C2.52375 13.1456 2.44037 12.9398 2.47511 12.7362L3.14096 8.85264C3.17117 8.67681 3.11256 8.49736 2.98477 8.37289L0.163694 5.62251C0.015964 5.47841 -0.0372069 5.263 0.0265377 5.06694C0.0902822 4.87087 0.259764 4.72767 0.464291 4.69806L4.36389 4.13161C4.54032 4.10593 4.69318 3.99506 4.77203 3.83494L6.5164 0.302107Z" fill="#FA9D4C"/>
</svg>
