<svg width="14" height="14" viewBox="0 0 14 14" fill="none" xmlns="http://www.w3.org/2000/svg">
<path fill-rule="evenodd" clip-rule="evenodd" d="M13.998 5.16174C13.998 4.9547 13.841 4.82602 13.5268 4.7756L9.30401 4.16301L7.41128 0.344071C7.30479 0.114651 7.16728 0 6.99906 0C6.83088 0 6.69345 0.114651 6.58688 0.344071L4.69405 4.16301L0.471026 4.7756C0.157048 4.82602 0 4.9547 0 5.16174C0 5.27931 0.0701265 5.41359 0.21035 5.56467L3.27246 8.53584L2.54901 12.7323C2.53778 12.8107 2.53221 12.8668 2.53221 12.9003C2.53221 13.0178 2.56162 13.117 2.62049 13.1982C2.67933 13.2795 2.76761 13.32 2.88544 13.32C2.98644 13.32 3.09856 13.2866 3.22193 13.2194L6.99897 11.2384L10.7762 13.2192C10.8941 13.2864 11.0062 13.32 11.1126 13.32C11.3427 13.32 11.4577 13.1804 11.4577 12.9005C11.4577 12.8278 11.4549 12.7719 11.4493 12.7324L10.7259 8.53608L13.7794 5.56488C13.9252 5.41918 13.998 5.28483 13.998 5.16174ZM9.56487 8.15817L10.1704 11.6918L6.99897 10.0214L3.81906 11.6918L4.4332 8.15817L1.859 5.66527L5.40905 5.14493L6.99894 1.93869L8.58878 5.14493L12.1391 5.66527L9.56487 8.15817Z" fill="#FA9D4C"/>
</svg>
