<svg width="7" height="13" viewBox="0 0 7 13" fill="none" xmlns="http://www.w3.org/2000/svg">
<path fill-rule="evenodd" clip-rule="evenodd" d="M6.60536 0.00268041L4.95904 0C3.10945 0 1.91417 1.24438 1.91417 3.17039V4.63215H0.258868C0.11583 4.63215 0 4.74982 0 4.89497V7.0129C0 7.15804 0.115962 7.27558 0.258868 7.27558H1.91417V12.6198C1.91417 12.7649 2.03 12.8825 2.17304 12.8825H4.33274C4.47577 12.8825 4.5916 12.7648 4.5916 12.6198V7.27558H6.52704C6.67008 7.27558 6.78591 7.15804 6.78591 7.0129L6.7867 4.89497C6.7867 4.82528 6.75936 4.75854 6.71089 4.70922C6.66242 4.6599 6.59638 4.63215 6.5277 4.63215H4.5916V3.393C4.5916 2.79741 4.73147 2.49506 5.49606 2.49506L6.60509 2.49466C6.748 2.49466 6.86383 2.37699 6.86383 2.23198V0.265361C6.86383 0.120485 6.74813 0.00294845 6.60536 0.00268041Z" fill="#868686"/>
</svg>
