<svg width="17" height="13" viewBox="0 0 17 13" fill="none" xmlns="http://www.w3.org/2000/svg">
<path fill-rule="evenodd" clip-rule="evenodd" d="M13.0427 5.77646H6.95614V7.79587H10.6696C10.1156 9.55148 8.46807 10.825 6.52133 10.825C4.12018 10.825 2.17379 8.88752 2.17379 6.49769C2.17379 4.10775 4.12025 2.17044 6.52133 2.17044C7.73047 2.17044 8.82411 2.66186 9.61215 3.45483L11.0849 1.86154C9.90868 0.714407 8.29818 0.00683594 6.52133 0.00683594C2.91972 0.00680155 0 2.91289 0 6.49769C0 10.0825 2.91972 12.9886 6.52137 12.9886C9.67628 12.9886 12.4385 10.7586 13.0428 7.7959V5.7765L13.0427 5.77646Z" fill="#868686"/>
<path fill-rule="evenodd" clip-rule="evenodd" d="M16.9951 5.77334H15.7502V4.53418H14.683V5.77334H13.438V6.83545H14.683V8.07465H15.7502V6.83545H16.9951V5.77334Z" fill="#868686"/>
</svg>
