<svg width="13" height="13" viewBox="0 0 13 13" fill="none" xmlns="http://www.w3.org/2000/svg">
<path fill-rule="evenodd" clip-rule="evenodd" d="M9.36046 0H3.56766C1.60045 0 0 1.60053 0 3.56774V9.36054C0 11.3278 1.60045 12.9283 3.56766 12.9283H9.36046C11.3278 12.9283 12.9283 11.3277 12.9283 9.36054V3.56774C12.9283 1.60053 11.3278 0 9.36046 0ZM11.7813 9.36053C11.7813 10.6953 10.6953 11.7812 9.36053 11.7812H3.56766C2.23294 11.7813 1.14706 10.6953 1.14706 9.36053V3.56774C1.14706 2.23302 2.23294 1.14706 3.56766 1.14706H9.36046C10.6953 1.14706 11.7812 2.23302 11.7812 3.56774V9.36053H11.7813Z" fill="#868686"/>
<path fill-rule="evenodd" clip-rule="evenodd" d="M6.4641 3.13281C4.6272 3.13281 3.13281 4.6272 3.13281 6.4641C3.13281 8.30092 4.6272 9.79524 6.4641 9.79524C8.301 9.79524 9.79539 8.30092 9.79539 6.4641C9.79539 4.6272 8.301 3.13281 6.4641 3.13281ZM6.4641 8.6481C5.25977 8.6481 4.27987 7.66836 4.27987 6.46402C4.27987 5.25961 5.25969 4.27979 6.4641 4.27979C7.66851 4.27979 8.64833 5.25961 8.64833 6.46402C8.64833 7.66836 7.66844 8.6481 6.4641 8.6481Z" fill="#868686"/>
<path fill-rule="evenodd" clip-rule="evenodd" d="M9.93517 2.16016C9.71417 2.16016 9.49707 2.24963 9.34099 2.40639C9.18415 2.56239 9.09399 2.77957 9.09399 3.00133C9.09399 3.22241 9.18423 3.43951 9.34099 3.59627C9.49699 3.75227 9.71417 3.84251 9.93517 3.84251C10.1569 3.84251 10.3733 3.75227 10.5301 3.59627C10.6869 3.43951 10.7763 3.22233 10.7763 3.00133C10.7763 2.77957 10.6869 2.56239 10.5301 2.40639C10.3741 2.24963 10.1569 2.16016 9.93517 2.16016Z" fill="#868686"/>
</svg>
