<svg width="16" height="13" viewBox="0 0 16 13" fill="none" xmlns="http://www.w3.org/2000/svg">
<path fill-rule="evenodd" clip-rule="evenodd" d="M15.8468 1.52349C15.2637 1.78188 14.6372 1.95655 13.9795 2.03508C14.6507 1.63298 15.1662 0.996274 15.409 0.237547C14.7807 0.60992 14.085 0.880285 13.3445 1.02597C12.7514 0.39452 11.9065 0 10.9713 0C9.17586 0 7.72022 1.45463 7.72022 3.24892C7.72022 3.50357 7.74897 3.75154 7.8044 3.98937C5.10241 3.85383 2.70679 2.56037 1.1033 0.594641C0.823443 1.0745 0.663088 1.63261 0.663088 2.22805C0.663088 3.35529 1.23704 4.34977 2.10941 4.93241C1.57647 4.91552 1.07517 4.76937 0.636872 4.52601C0.636563 4.53956 0.636563 4.55317 0.636563 4.56687C0.636563 6.14105 1.75726 7.45418 3.2445 7.75272C2.97173 7.82692 2.68448 7.86676 2.38797 7.86676C2.17846 7.86676 1.97481 7.84635 1.77626 7.80837C2.19001 9.0991 3.39065 10.0386 4.81333 10.0647C3.70065 10.9362 2.2988 11.4556 0.775562 11.4556C0.513131 11.4556 0.254353 11.4402 0 11.4101C1.43877 12.332 3.14772 12.8699 4.98371 12.8699C10.9637 12.8699 14.2339 7.9191 14.2339 3.62562C14.2339 3.48476 14.2307 3.34465 14.2244 3.20528C14.8597 2.74722 15.4109 2.17501 15.8468 1.52349Z" fill="#868686"/>
</svg>
